<?xml version="1.0" encoding="UTF-8" standalone="no"?>
<!DOCTYPE svg PUBLIC "-//W3C//DTD SVG 1.1//EN"
 "http://www.w3.org/Graphics/SVG/1.1/DTD/svg11.dtd">
<!-- Generated by graphviz version 2.43.0 (0)
 -->
<!-- Title: G Pages: 1 -->
<svg width="968pt" height="1408pt"
 viewBox="0.00 0.00 968.16 1407.84" xmlns="http://www.w3.org/2000/svg" xmlns:xlink="http://www.w3.org/1999/xlink">
<g id="graph0" class="graph" transform="scale(1 1) rotate(0) translate(4 1403.84)">
<title>G</title>
<polygon fill="white" stroke="transparent" points="-4,4 -4,-1403.84 964.16,-1403.84 964.16,4 -4,4"/>
<!-- bag0 -->
<g id="node1" class="node">
<title>bag0</title>
<ellipse fill="none" stroke="black" cx="353.12" cy="-1372.97" rx="43.68" ry="26.74"/>
<text text-anchor="middle" x="353.12" y="-1376.77" font-family="Times,serif" font-size="14.00">1 2 20</text>
<text text-anchor="middle" x="353.12" y="-1361.77" font-family="Times,serif" font-size="14.00"> </text>
</g>
<!-- bag1 -->
<g id="node2" class="node">
<title>bag1</title>
<ellipse fill="none" stroke="black" cx="353.12" cy="-1283.23" rx="59.29" ry="26.74"/>
<text text-anchor="middle" x="353.12" y="-1287.03" font-family="Times,serif" font-size="14.00">2 3 19 20</text>
<text text-anchor="middle" x="353.12" y="-1272.03" font-family="Times,serif" font-size="14.00"> </text>
</g>
<!-- bag0&#45;&#45;bag1 -->
<g id="edge1" class="edge">
<title>bag0&#45;&#45;bag1</title>
<path fill="none" stroke="black" d="M353.12,-1345.65C353.12,-1334.44 353.12,-1321.41 353.12,-1310.24"/>
</g>
<!-- bag2 -->
<g id="node3" class="node">
<title>bag2</title>
<ellipse fill="none" stroke="black" cx="353.12" cy="-1193.49" rx="65.52" ry="26.74"/>
<text text-anchor="middle" x="353.12" y="-1197.29" font-family="Times,serif" font-size="14.00">3 18 19 20</text>
<text text-anchor="middle" x="353.12" y="-1182.29" font-family="Times,serif" font-size="14.00"> </text>
</g>
<!-- bag1&#45;&#45;bag2 -->
<g id="edge2" class="edge">
<title>bag1&#45;&#45;bag2</title>
<path fill="none" stroke="black" d="M353.12,-1255.91C353.12,-1244.7 353.12,-1231.67 353.12,-1220.5"/>
</g>
<!-- bag3 -->
<g id="node4" class="node">
<title>bag3</title>
<ellipse fill="none" stroke="black" cx="353.12" cy="-1103.75" rx="59.29" ry="26.74"/>
<text text-anchor="middle" x="353.12" y="-1107.55" font-family="Times,serif" font-size="14.00">3 4 18 20</text>
<text text-anchor="middle" x="353.12" y="-1092.55" font-family="Times,serif" font-size="14.00"> </text>
</g>
<!-- bag2&#45;&#45;bag3 -->
<g id="edge3" class="edge">
<title>bag2&#45;&#45;bag3</title>
<path fill="none" stroke="black" d="M353.12,-1166.17C353.12,-1154.96 353.12,-1141.93 353.12,-1130.76"/>
</g>
<!-- bag4 -->
<g id="node5" class="node">
<title>bag4</title>
<ellipse fill="none" stroke="black" cx="353.12" cy="-1014.01" rx="65.52" ry="26.74"/>
<text text-anchor="middle" x="353.12" y="-1017.81" font-family="Times,serif" font-size="14.00">4 17 18 20</text>
<text text-anchor="middle" x="353.12" y="-1002.81" font-family="Times,serif" font-size="14.00"> </text>
</g>
<!-- bag3&#45;&#45;bag4 -->
<g id="edge4" class="edge">
<title>bag3&#45;&#45;bag4</title>
<path fill="none" stroke="black" d="M353.12,-1076.43C353.12,-1065.22 353.12,-1052.19 353.12,-1041.02"/>
</g>
<!-- bag5 -->
<g id="node6" class="node">
<title>bag5</title>
<ellipse fill="none" stroke="black" cx="353.12" cy="-924.27" rx="59.29" ry="26.74"/>
<text text-anchor="middle" x="353.12" y="-928.07" font-family="Times,serif" font-size="14.00">4 5 17 20</text>
<text text-anchor="middle" x="353.12" y="-913.07" font-family="Times,serif" font-size="14.00"> </text>
</g>
<!-- bag4&#45;&#45;bag5 -->
<g id="edge5" class="edge">
<title>bag4&#45;&#45;bag5</title>
<path fill="none" stroke="black" d="M353.12,-986.69C353.12,-975.48 353.12,-962.45 353.12,-951.28"/>
</g>
<!-- bag6 -->
<g id="node7" class="node">
<title>bag6</title>
<ellipse fill="none" stroke="black" cx="353.12" cy="-834.53" rx="65.52" ry="26.74"/>
<text text-anchor="middle" x="353.12" y="-838.33" font-family="Times,serif" font-size="14.00">5 16 17 20</text>
<text text-anchor="middle" x="353.12" y="-823.33" font-family="Times,serif" font-size="14.00"> </text>
</g>
<!-- bag5&#45;&#45;bag6 -->
<g id="edge6" class="edge">
<title>bag5&#45;&#45;bag6</title>
<path fill="none" stroke="black" d="M353.12,-896.95C353.12,-885.74 353.12,-872.71 353.12,-861.54"/>
</g>
<!-- bag7 -->
<g id="node8" class="node">
<title>bag7</title>
<ellipse fill="none" stroke="black" cx="353.12" cy="-744.79" rx="65.52" ry="26.74"/>
<text text-anchor="middle" x="353.12" y="-748.59" font-family="Times,serif" font-size="14.00">5 16 20 21</text>
<text text-anchor="middle" x="353.12" y="-733.59" font-family="Times,serif" font-size="14.00"> </text>
</g>
<!-- bag6&#45;&#45;bag7 -->
<g id="edge7" class="edge">
<title>bag6&#45;&#45;bag7</title>
<path fill="none" stroke="black" d="M353.12,-807.21C353.12,-796 353.12,-782.97 353.12,-771.79"/>
</g>
<!-- bag8 -->
<g id="node9" class="node">
<title>bag8</title>
<ellipse fill="none" stroke="black" cx="353.12" cy="-655.05" rx="82.05" ry="26.74"/>
<text text-anchor="middle" x="353.12" y="-658.85" font-family="Times,serif" font-size="14.00">5 16 21 26 36</text>
<text text-anchor="middle" x="353.12" y="-643.85" font-family="Times,serif" font-size="14.00"> </text>
</g>
<!-- bag7&#45;&#45;bag8 -->
<g id="edge8" class="edge">
<title>bag7&#45;&#45;bag8</title>
<path fill="none" stroke="black" d="M353.12,-717.47C353.12,-706.26 353.12,-693.23 353.12,-682.05"/>
</g>
<!-- bag9 -->
<g id="node10" class="node">
<title>bag9</title>
<ellipse fill="none" stroke="black" cx="259.12" cy="-565.31" rx="72.25" ry="26.74"/>
<text text-anchor="middle" x="259.12" y="-569.11" font-family="Times,serif" font-size="14.00">21 25 26 36</text>
<text text-anchor="middle" x="259.12" y="-554.11" font-family="Times,serif" font-size="14.00"> </text>
</g>
<!-- bag8&#45;&#45;bag9 -->
<g id="edge9" class="edge">
<title>bag8&#45;&#45;bag9</title>
<path fill="none" stroke="black" d="M326.69,-629.38C313.66,-617.21 298,-602.59 285.04,-590.5"/>
</g>
<!-- bag17 -->
<g id="node18" class="node">
<title>bag17</title>
<ellipse fill="none" stroke="black" cx="466.12" cy="-565.31" rx="97.66" ry="26.74"/>
<text text-anchor="middle" x="466.12" y="-569.11" font-family="Times,serif" font-size="14.00">5 11 16 26 31 36</text>
<text text-anchor="middle" x="466.12" y="-554.11" font-family="Times,serif" font-size="14.00"> </text>
</g>
<!-- bag8&#45;&#45;bag17 -->
<g id="edge10" class="edge">
<title>bag8&#45;&#45;bag17</title>
<path fill="none" stroke="black" d="M384,-630.08C399.69,-617.9 418.71,-603.13 434.5,-590.87"/>
</g>
<!-- bag10 -->
<g id="node11" class="node">
<title>bag10</title>
<ellipse fill="none" stroke="black" cx="221.12" cy="-475.57" rx="72.25" ry="26.74"/>
<text text-anchor="middle" x="221.12" y="-479.37" font-family="Times,serif" font-size="14.00">21 25 36 37</text>
<text text-anchor="middle" x="221.12" y="-464.37" font-family="Times,serif" font-size="14.00"> </text>
</g>
<!-- bag9&#45;&#45;bag10 -->
<g id="edge11" class="edge">
<title>bag9&#45;&#45;bag10</title>
<path fill="none" stroke="black" d="M247.93,-538.46C242.98,-527.04 237.18,-513.64 232.24,-502.24"/>
</g>
<!-- bag11 -->
<g id="node12" class="node">
<title>bag11</title>
<ellipse fill="none" stroke="black" cx="145.12" cy="-385.83" rx="72.25" ry="26.74"/>
<text text-anchor="middle" x="145.12" y="-389.63" font-family="Times,serif" font-size="14.00">21 24 25 37</text>
<text text-anchor="middle" x="145.12" y="-374.63" font-family="Times,serif" font-size="14.00"> </text>
</g>
<!-- bag10&#45;&#45;bag11 -->
<g id="edge12" class="edge">
<title>bag10&#45;&#45;bag11</title>
<path fill="none" stroke="black" d="M199.55,-449.66C189.19,-437.71 176.82,-423.42 166.49,-411.5"/>
</g>
<!-- bag12 -->
<g id="node13" class="node">
<title>bag12</title>
<ellipse fill="none" stroke="black" cx="145.12" cy="-296.09" rx="72.25" ry="26.74"/>
<text text-anchor="middle" x="145.12" y="-299.89" font-family="Times,serif" font-size="14.00">21 24 37 38</text>
<text text-anchor="middle" x="145.12" y="-284.89" font-family="Times,serif" font-size="14.00"> </text>
</g>
<!-- bag11&#45;&#45;bag12 -->
<g id="edge13" class="edge">
<title>bag11&#45;&#45;bag12</title>
<path fill="none" stroke="black" d="M145.12,-358.51C145.12,-347.3 145.12,-334.27 145.12,-323.09"/>
</g>
<!-- bag13 -->
<g id="node14" class="node">
<title>bag13</title>
<ellipse fill="none" stroke="black" cx="145.12" cy="-206.35" rx="72.25" ry="26.74"/>
<text text-anchor="middle" x="145.12" y="-210.15" font-family="Times,serif" font-size="14.00">21 23 24 38</text>
<text text-anchor="middle" x="145.12" y="-195.15" font-family="Times,serif" font-size="14.00"> </text>
</g>
<!-- bag12&#45;&#45;bag13 -->
<g id="edge14" class="edge">
<title>bag12&#45;&#45;bag13</title>
<path fill="none" stroke="black" d="M145.12,-268.77C145.12,-257.56 145.12,-244.52 145.12,-233.35"/>
</g>
<!-- bag14 -->
<g id="node15" class="node">
<title>bag14</title>
<ellipse fill="none" stroke="black" cx="145.12" cy="-116.61" rx="72.25" ry="26.74"/>
<text text-anchor="middle" x="145.12" y="-120.41" font-family="Times,serif" font-size="14.00">21 23 38 39</text>
<text text-anchor="middle" x="145.12" y="-105.41" font-family="Times,serif" font-size="14.00"> </text>
</g>
<!-- bag13&#45;&#45;bag14 -->
<g id="edge15" class="edge">
<title>bag13&#45;&#45;bag14</title>
<path fill="none" stroke="black" d="M145.12,-179.03C145.12,-167.82 145.12,-154.78 145.12,-143.61"/>
</g>
<!-- bag15 -->
<g id="node16" class="node">
<title>bag15</title>
<ellipse fill="none" stroke="black" cx="72.12" cy="-26.87" rx="72.25" ry="26.74"/>
<text text-anchor="middle" x="72.12" y="-30.67" font-family="Times,serif" font-size="14.00">21 22 23 39</text>
<text text-anchor="middle" x="72.12" y="-15.67" font-family="Times,serif" font-size="14.00"> </text>
</g>
<!-- bag14&#45;&#45;bag15 -->
<g id="edge16" class="edge">
<title>bag14&#45;&#45;bag15</title>
<path fill="none" stroke="black" d="M124.4,-90.7C114.54,-78.85 102.77,-64.7 92.9,-52.84"/>
</g>
<!-- bag16 -->
<g id="node17" class="node">
<title>bag16</title>
<ellipse fill="none" stroke="black" cx="219.12" cy="-26.87" rx="56.64" ry="26.74"/>
<text text-anchor="middle" x="219.12" y="-30.67" font-family="Times,serif" font-size="14.00">21 39 40</text>
<text text-anchor="middle" x="219.12" y="-15.67" font-family="Times,serif" font-size="14.00"> </text>
</g>
<!-- bag14&#45;&#45;bag16 -->
<g id="edge17" class="edge">
<title>bag14&#45;&#45;bag16</title>
<path fill="none" stroke="black" d="M166.13,-90.7C176.3,-78.64 188.47,-64.22 198.58,-52.23"/>
</g>
<!-- bag18 -->
<g id="node19" class="node">
<title>bag18</title>
<ellipse fill="none" stroke="black" cx="466.12" cy="-475.57" rx="88.28" ry="26.74"/>
<text text-anchor="middle" x="466.12" y="-479.37" font-family="Times,serif" font-size="14.00">11 16 31 34 36</text>
<text text-anchor="middle" x="466.12" y="-464.37" font-family="Times,serif" font-size="14.00"> </text>
</g>
<!-- bag17&#45;&#45;bag18 -->
<g id="edge18" class="edge">
<title>bag17&#45;&#45;bag18</title>
<path fill="none" stroke="black" d="M466.12,-537.99C466.12,-526.78 466.12,-513.75 466.12,-502.57"/>
</g>
<!-- bag26 -->
<g id="node27" class="node">
<title>bag26</title>
<ellipse fill="none" stroke="black" cx="661.12" cy="-475.57" rx="75.82" ry="26.74"/>
<text text-anchor="middle" x="661.12" y="-479.37" font-family="Times,serif" font-size="14.00">5 6 11 26 31</text>
<text text-anchor="middle" x="661.12" y="-464.37" font-family="Times,serif" font-size="14.00"> </text>
</g>
<!-- bag17&#45;&#45;bag26 -->
<g id="edge19" class="edge">
<title>bag17&#45;&#45;bag26</title>
<path fill="none" stroke="black" d="M515.58,-542.06C546.27,-528.25 585.43,-510.63 615.4,-497.15"/>
</g>
<!-- bag19 -->
<g id="node20" class="node">
<title>bag19</title>
<ellipse fill="none" stroke="black" cx="307.12" cy="-385.83" rx="72.25" ry="26.74"/>
<text text-anchor="middle" x="307.12" y="-389.63" font-family="Times,serif" font-size="14.00">11 34 35 36</text>
<text text-anchor="middle" x="307.12" y="-374.63" font-family="Times,serif" font-size="14.00"> </text>
</g>
<!-- bag18&#45;&#45;bag19 -->
<g id="edge20" class="edge">
<title>bag18&#45;&#45;bag19</title>
<path fill="none" stroke="black" d="M424.76,-451.75C400.56,-438.39 370.19,-421.63 346.36,-408.48"/>
</g>
<!-- bag20 -->
<g id="node21" class="node">
<title>bag20</title>
<ellipse fill="none" stroke="black" cx="486.12" cy="-385.83" rx="88.28" ry="26.74"/>
<text text-anchor="middle" x="486.12" y="-389.63" font-family="Times,serif" font-size="14.00">11 13 16 31 34</text>
<text text-anchor="middle" x="486.12" y="-374.63" font-family="Times,serif" font-size="14.00"> </text>
</g>
<!-- bag18&#45;&#45;bag20 -->
<g id="edge21" class="edge">
<title>bag18&#45;&#45;bag20</title>
<path fill="none" stroke="black" d="M472.02,-448.72C474.6,-437.4 477.62,-424.14 480.21,-412.8"/>
</g>
<!-- bag21 -->
<g id="node22" class="node">
<title>bag21</title>
<ellipse fill="none" stroke="black" cx="331.12" cy="-296.09" rx="88.28" ry="26.74"/>
<text text-anchor="middle" x="331.12" y="-299.89" font-family="Times,serif" font-size="14.00">13 16 31 32 34</text>
<text text-anchor="middle" x="331.12" y="-284.89" font-family="Times,serif" font-size="14.00"> </text>
</g>
<!-- bag20&#45;&#45;bag21 -->
<g id="edge22" class="edge">
<title>bag20&#45;&#45;bag21</title>
<path fill="none" stroke="black" d="M445.4,-361.78C422.62,-348.88 394.32,-332.86 371.58,-319.99"/>
</g>
<!-- bag25 -->
<g id="node26" class="node">
<title>bag25</title>
<ellipse fill="none" stroke="black" cx="510.12" cy="-296.09" rx="72.25" ry="26.74"/>
<text text-anchor="middle" x="510.12" y="-299.89" font-family="Times,serif" font-size="14.00">11 12 13 34</text>
<text text-anchor="middle" x="510.12" y="-284.89" font-family="Times,serif" font-size="14.00"> </text>
</g>
<!-- bag20&#45;&#45;bag25 -->
<g id="edge23" class="edge">
<title>bag20&#45;&#45;bag25</title>
<path fill="none" stroke="black" d="M493.2,-358.98C496.29,-347.66 499.92,-334.4 503.02,-323.06"/>
</g>
<!-- bag22 -->
<g id="node23" class="node">
<title>bag22</title>
<ellipse fill="none" stroke="black" cx="317.12" cy="-206.35" rx="72.25" ry="26.74"/>
<text text-anchor="middle" x="317.12" y="-210.15" font-family="Times,serif" font-size="14.00">13 32 33 34</text>
<text text-anchor="middle" x="317.12" y="-195.15" font-family="Times,serif" font-size="14.00"> </text>
</g>
<!-- bag21&#45;&#45;bag22 -->
<g id="edge24" class="edge">
<title>bag21&#45;&#45;bag22</title>
<path fill="none" stroke="black" d="M327,-269.24C325.19,-257.92 323.08,-244.66 321.27,-233.32"/>
</g>
<!-- bag23 -->
<g id="node24" class="node">
<title>bag23</title>
<ellipse fill="none" stroke="black" cx="496.12" cy="-206.35" rx="88.28" ry="26.74"/>
<text text-anchor="middle" x="496.12" y="-210.15" font-family="Times,serif" font-size="14.00">13 15 16 31 32</text>
<text text-anchor="middle" x="496.12" y="-195.15" font-family="Times,serif" font-size="14.00"> </text>
</g>
<!-- bag21&#45;&#45;bag23 -->
<g id="edge25" class="edge">
<title>bag21&#45;&#45;bag23</title>
<path fill="none" stroke="black" d="M373.62,-272.5C398.16,-259.45 428.93,-243.08 453.49,-230.02"/>
</g>
<!-- bag24 -->
<g id="node25" class="node">
<title>bag24</title>
<ellipse fill="none" stroke="black" cx="496.12" cy="-116.61" rx="72.25" ry="26.74"/>
<text text-anchor="middle" x="496.12" y="-120.41" font-family="Times,serif" font-size="14.00">13 14 15 32</text>
<text text-anchor="middle" x="496.12" y="-105.41" font-family="Times,serif" font-size="14.00"> </text>
</g>
<!-- bag23&#45;&#45;bag24 -->
<g id="edge26" class="edge">
<title>bag23&#45;&#45;bag24</title>
<path fill="none" stroke="black" d="M496.12,-179.03C496.12,-167.82 496.12,-154.78 496.12,-143.61"/>
</g>
<!-- bag27 -->
<g id="node28" class="node">
<title>bag27</title>
<ellipse fill="none" stroke="black" cx="674.12" cy="-385.83" rx="82.05" ry="26.74"/>
<text text-anchor="middle" x="674.12" y="-389.63" font-family="Times,serif" font-size="14.00">6 11 26 29 31</text>
<text text-anchor="middle" x="674.12" y="-374.63" font-family="Times,serif" font-size="14.00"> </text>
</g>
<!-- bag26&#45;&#45;bag27 -->
<g id="edge27" class="edge">
<title>bag26&#45;&#45;bag27</title>
<path fill="none" stroke="black" d="M664.96,-448.72C666.63,-437.4 668.6,-424.14 670.28,-412.8"/>
</g>
<!-- bag28 -->
<g id="node29" class="node">
<title>bag28</title>
<ellipse fill="none" stroke="black" cx="670.12" cy="-296.09" rx="65.52" ry="26.74"/>
<text text-anchor="middle" x="670.12" y="-299.89" font-family="Times,serif" font-size="14.00">6 29 30 31</text>
<text text-anchor="middle" x="670.12" y="-284.89" font-family="Times,serif" font-size="14.00"> </text>
</g>
<!-- bag27&#45;&#45;bag28 -->
<g id="edge28" class="edge">
<title>bag27&#45;&#45;bag28</title>
<path fill="none" stroke="black" d="M672.92,-358.51C672.41,-347.3 671.82,-334.27 671.31,-323.09"/>
</g>
<!-- bag29 -->
<g id="node30" class="node">
<title>bag29</title>
<ellipse fill="none" stroke="black" cx="829.12" cy="-296.09" rx="75.82" ry="26.74"/>
<text text-anchor="middle" x="829.12" y="-299.89" font-family="Times,serif" font-size="14.00">6 8 11 26 29</text>
<text text-anchor="middle" x="829.12" y="-284.89" font-family="Times,serif" font-size="14.00"> </text>
</g>
<!-- bag27&#45;&#45;bag29 -->
<g id="edge29" class="edge">
<title>bag27&#45;&#45;bag29</title>
<path fill="none" stroke="black" d="M714.04,-362.24C737.45,-348.98 766.9,-332.31 790.15,-319.15"/>
</g>
<!-- bag30 -->
<g id="node31" class="node">
<title>bag30</title>
<ellipse fill="none" stroke="black" cx="754.12" cy="-206.35" rx="82.05" ry="26.74"/>
<text text-anchor="middle" x="754.12" y="-210.15" font-family="Times,serif" font-size="14.00">8 11 26 27 29</text>
<text text-anchor="middle" x="754.12" y="-195.15" font-family="Times,serif" font-size="14.00"> </text>
</g>
<!-- bag29&#45;&#45;bag30 -->
<g id="edge30" class="edge">
<title>bag29&#45;&#45;bag30</title>
<path fill="none" stroke="black" d="M807.83,-270.18C797.7,-258.33 785.61,-244.18 775.47,-232.32"/>
</g>
<!-- bag34 -->
<g id="node35" class="node">
<title>bag34</title>
<ellipse fill="none" stroke="black" cx="907.12" cy="-206.35" rx="53.07" ry="26.74"/>
<text text-anchor="middle" x="907.12" y="-210.15" font-family="Times,serif" font-size="14.00">6 7 8 29</text>
<text text-anchor="middle" x="907.12" y="-195.15" font-family="Times,serif" font-size="14.00"> </text>
</g>
<!-- bag29&#45;&#45;bag34 -->
<g id="edge31" class="edge">
<title>bag29&#45;&#45;bag34</title>
<path fill="none" stroke="black" d="M851.27,-270.18C862.17,-257.92 875.24,-243.21 886,-231.11"/>
</g>
<!-- bag31 -->
<g id="node32" class="node">
<title>bag31</title>
<ellipse fill="none" stroke="black" cx="657.12" cy="-116.61" rx="65.52" ry="26.74"/>
<text text-anchor="middle" x="657.12" y="-120.41" font-family="Times,serif" font-size="14.00">8 27 28 29</text>
<text text-anchor="middle" x="657.12" y="-105.41" font-family="Times,serif" font-size="14.00"> </text>
</g>
<!-- bag30&#45;&#45;bag31 -->
<g id="edge32" class="edge">
<title>bag30&#45;&#45;bag31</title>
<path fill="none" stroke="black" d="M727.1,-180.91C713.43,-168.54 696.89,-153.58 683.33,-141.31"/>
</g>
<!-- bag32 -->
<g id="node33" class="node">
<title>bag32</title>
<ellipse fill="none" stroke="black" cx="823.12" cy="-116.61" rx="82.05" ry="26.74"/>
<text text-anchor="middle" x="823.12" y="-120.41" font-family="Times,serif" font-size="14.00">8 10 11 26 27</text>
<text text-anchor="middle" x="823.12" y="-105.41" font-family="Times,serif" font-size="14.00"> </text>
</g>
<!-- bag30&#45;&#45;bag32 -->
<g id="edge33" class="edge">
<title>bag30&#45;&#45;bag32</title>
<path fill="none" stroke="black" d="M774.08,-179.97C783.24,-168.33 794.06,-154.56 803.21,-142.93"/>
</g>
<!-- bag33 -->
<g id="node34" class="node">
<title>bag33</title>
<ellipse fill="none" stroke="black" cx="823.12" cy="-26.87" rx="59.29" ry="26.74"/>
<text text-anchor="middle" x="823.12" y="-30.67" font-family="Times,serif" font-size="14.00">8 9 10 27</text>
<text text-anchor="middle" x="823.12" y="-15.67" font-family="Times,serif" font-size="14.00"> </text>
</g>
<!-- bag32&#45;&#45;bag33 -->
<g id="edge34" class="edge">
<title>bag32&#45;&#45;bag33</title>
<path fill="none" stroke="black" d="M823.12,-89.29C823.12,-78.08 823.12,-65.04 823.12,-53.87"/>
</g>
</g>
</svg>
